<svg width="1024" height="1024" fill="none" xmlns="http://www.w3.org/2000/svg"><path fill="#00FF00" d="M0 0h1024v1024H0z"/><path d="M499 47c7-7 19-7 26 0l81 80c5 4 11 6 17 4l111-28c9-3 19 3 21 12l31 110c2 6 7 11 13 13l110 31c9 2 15 12 12 21l-28 111c-2 6 0 12 4 17l80 81c7 7 7 19 0 26l-80 81c-4 5-6 11-4 17l28 111c3 9-3 19-12 21l-110 31c-6 2-11 7-13 13l-31 110c-2 9-12 15-21 12l-111-28c-6-2-12 0-17 4l-81 80c-7 7-19 7-26 0l-81-80c-5-4-11-6-17-4l-111 28c-9 3-19-3-21-12l-31-110c-2-6-7-11-13-13l-110-31c-9-2-15-12-12-21l28-111c2-6 0-12-4-17l-80-81c-7-7-7-19 0-26l80-81c4-5 6-11 4-17l-28-111c-3-9 3-19 12-21l110-31c6-2 11-7 13-13l31-110c2-9 12-15 21-12l111 28c6 2 12 0 17-4l81-80Z" fill="#0000FF"/><path fill-rule="evenodd" clip-rule="evenodd" d="M327 285c0-32 26-58 58-58h354c32 0 58 26 58 58v354c0 32-26 58-58 58H385c-32 0-58-26-58-58V285Z" fill="#FF0000"/><path d="M244 780c11 11 24 17 39 17h413v-56H283V328h-56v413c0 15 6 28 17 39Z" fill="#FF0000"/><path fill-rule="evenodd" clip-rule="evenodd" d="M746 747c56-4 101-51 101-108V285c0-59-49-108-108-108H385c-57 0-104 45-108 101h-50c-27 0-50 22-50 50v413c0 29 11 54 31 74s46 32 75 32h413c28 0 50-23 50-50v-50Zm-502 33c11 11 24 17 39 17h413v-56H283V328h-56v413c0 15 6 28 17 39Zm83-141a58 58 0 0 0 58 58h354c32 0 58-26 58-58V285c0-32-26-58-58-58H385c-32 0-58 26-58 58v354Z" fill="#FFFF00"/><path d="M573 584a70 70 0 0 1-51 21c-20 0-36-7-50-21a71 71 0 0 1-20-50c0-20 7-36 20-50 14-14 30-20 50-20a82 82 0 0 1 43 12V324h111v50h-82v159c0 21-7 37-21 51Z" fill="#FFFF00"/></svg>