<svg width="4080" height="1440" fill="none" xmlns="http://www.w3.org/2000/svg"><path fill="#00FF00" d="M0 0h4080v1440H0z"/><path d="M513 741c188.88 0 342-153.12 342-342S701.88 57 513 57 171 210.12 171 399s153.12 342 342 342ZM1909 624c0 162.92-132.08 295-295 295s-295-132.08-295-295 132.08-295 295-295 295 132.08 295 295ZM1077 1188.5c0 93.06-75.44 168.5-168.5 168.5S740 1281.56 740 1188.5 815.44 1020 908.5 1020s168.5 75.44 168.5 168.5ZM2790 1064.5c0 143.87-116.63 260.5-260.5 260.5S2269 1208.37 2269 1064.5 2385.63 804 2529.5 804 2790 920.63 2790 1064.5ZM3342.5 836c164.3 0 297.5-133.2 297.5-297.5S3506.8 241 3342.5 241 3045 374.2 3045 538.5 3178.2 836 3342.5 836ZM3820 1249c0 59.65-48.35 108-108 108s-108-48.35-108-108 48.35-108 108-108 108 48.35 108 108ZM2448.5 329a81.5 81.5 0 1 0 0-163 81.5 81.5 0 0 0 0 163Z" fill="#0000FF"/><path fill-rule="evenodd" clip-rule="evenodd" d="M2524.18 215.01a111.7 111.7 0 0 0-111.8 116.6l-108.2 147.6a37.15 37.15 0 0 0 .2 44.2c-8 16-7.9 35.3-3.3 51.1 6.5 22 23.8 44.7 52.2 49.6 26.7 4.5 50.7-8.6 68.1-18.2l4-2.2c8-4.4 15-8.3 22-11.4 8-3.4 14.8-5.2 20.8-5.2a96 96 0 0 1 54.9 18.7 18.7 18.7 0 0 0 20.8-30.9 133.03 133.03 0 0 0-75.7-25 89.77 89.77 0 0 0-35.6 8.3 292.24 292.24 0 0 0-29.2 15.1c-19.2 10.6-32 16.1-43.8 14-10.3-1.7-18.9-10.3-22.7-23.3-1.4-4.8-1.9-9.3-1.7-13.2a37.28 37.28 0 0 0 37-4.8l141.8-108.2a111.71 111.71 0 1 0 10-222.8h.2Zm-74.6 111.6a74.47 74.47 0 0 1 74.6-74.4 74.5 74.5 0 1 1-74.6 74.4Zm20.6 97.8a112.17 112.17 0 0 1-45.5-46.6l-90.4 123.4 15.2 15.2 120.7-92Z" fill="#FF0000"/><path fill-rule="evenodd" clip-rule="evenodd" d="M2484.58 326.66a39.51 39.51 0 0 1 39.55-39.45 39.52 39.52 0 0 1 27.84 67.47 39.5 39.5 0 0 1-67.39-28.02Zm-35-.05a74.47 74.47 0 0 1 74.6-74.4 74.5 74.5 0 1 1-74.6 74.4Z" fill="#FFFF00"/><path d="M2470.18 424.41a112.06 112.06 0 0 1-45.5-46.6l-90.4 123.4 8.96 8.96 6.24 6.24 13.39-10.2 107.31-81.8Z" fill="#FFFF00"/><path fill-rule="evenodd" clip-rule="evenodd" d="M2262 501.5a72.13 72.13 0 0 0 4.31 24.24c-5.44 20.56-3.78 41.58 1.16 58.55l.02.07.02.07c8.99 30.42 34.33 66.32 79.82 74.17l.06.01.07.01c39.09 6.6 72.6-11.97 89.16-21.14l.72-.4.62-.35.31-.17h.01l28.85-14.2c.56-.14.92-.2 1.11-.24a60.97 60.97 0 0 1 34.07 11.86l1.87 1.38 2.04 1.12a53.7 53.7 0 0 0 59.73-88.73l-.8-.65-.84-.6A166.6 166.6 0 0 0 2471 515l54.03-41.6A146.73 146.73 0 0 0 2672 333.28a146.86 146.86 0 0 0-41.19-108.65A146.66 146.66 0 0 0 2523.77 180a146.77 146.77 0 0 0-105.69 45.17 146.76 146.76 0 0 0-40.66 94.92l-101.49 138.44A72.18 72.18 0 0 0 2262 501.5Zm36.45-10.61a37.1 37.1 0 0 1 5.73-11.68l108.2-147.6a111.61 111.61 0 0 1 30.96-82.2 111.66 111.66 0 0 1 80.41-34.4H2524.21a111.72 111.72 0 0 1 74.18 196.29 111.83 111.83 0 0 1-84.41 26.51l-67.46 51.47-74.34 56.73a37.37 37.37 0 0 1-11.7 6.02l-.21.07a37.38 37.38 0 0 1-25.09-1.29 40.82 40.82 0 0 0 1.7 13.2 41.1 41.1 0 0 0 4.36 10.01c4.31 7.05 10.47 11.7 17.46 13.13l.88.16a27.88 27.88 0 0 0 2.84.36c11.04.83 23.29-4.6 40.96-14.36a292.24 292.24 0 0 1 29.2-15.1 89.78 89.78 0 0 1 35.6-8.3c27.19.4 53.61 9.12 75.7 25a18.72 18.72 0 0 1-7.39 32.68 18.7 18.7 0 0 1-13.41-1.78 96 96 0 0 0-54.9-18.7c-4.62 0-9.72 1.07-15.47 3.11-1.72.61-3.5 1.3-5.33 2.09-6.59 2.92-13.17 6.54-20.59 10.62l-.62.34-.79.44-4 2.2a290.04 290.04 0 0 1-16.95 8.83c-14.79 6.95-32.3 12.55-51.15 9.37-28.4-4.9-45.7-27.6-52.2-49.6a78.83 78.83 0 0 1-2.9-28.24 65.64 65.64 0 0 1 2.95-14.9 56.85 56.85 0 0 1 3.25-7.96 37.77 37.77 0 0 1-3.88-6.48 37.13 37.13 0 0 1-2.05-26.04Z" fill="#FFFF00"/><path fill-rule="evenodd" clip-rule="evenodd" d="M2523.98 215.01h.2-.2Zm-77.37 192.09a112.06 112.06 0 0 0 23.57 17.31l-107.31 81.8-13.39 10.2-6.24-6.24-8.96-8.96 90.4-123.4a112.18 112.18 0 0 0 21.93 29.29Zm24.86-133.14a74.47 74.47 0 0 0-.14 105.36 74.5 74.5 0 1 0 .14-105.36Zm24.71 24.78a39.51 39.51 0 1 0 67.4 28.02 39.52 39.52 0 0 0-67.4-28.02Z" fill="#FFFF00"/><path d="M400.26 807H267.74c-70.46 0-96.74 26.31-96.74 96.84v265.32c0 70.53 26.28 96.84 96.74 96.84h132.52c70.46 0 96.74-26.31 96.74-96.84V903.84c0-70.53-26.28-96.84-96.74-96.84ZM334 903.84a33.1 33.1 0 0 1 33.13 33.17A33.1 33.1 0 0 1 334 970.17a33.1 33.1 0 0 1-33.13-33.16A33.1 33.1 0 0 1 334 903.84Zm0 265.32a66.2 66.2 0 0 1-66.26-66.33A66.2 66.2 0 0 1 334 1036.5a66.2 66.2 0 0 1 66.26 66.33 66.2 66.2 0 0 1-66.26 66.33Z" fill="#FF0000"/><path fill-rule="evenodd" clip-rule="evenodd" d="M267.74 772h132.52c38.1 0 74.16 6.81 99.55 32.24 25.39 25.41 32.19 61.48 32.19 99.6v265.32c0 38.12-6.8 74.19-32.19 99.6-25.4 25.43-61.45 32.24-99.55 32.24H267.74c-38.1 0-74.16-6.81-99.55-32.24-25.39-25.41-32.19-61.48-32.19-99.6V903.84c0-38.12 6.8-74.19 32.19-99.6 25.4-25.43 61.45-32.24 99.55-32.24Zm35 330.83a31.2 31.2 0 0 0 31.26 31.33 31.2 31.2 0 0 0 31.26-31.33A31.2 31.2 0 0 0 334 1071.5a31.2 31.2 0 0 0-31.26 31.33Zm-35-295.83h132.52c70.46 0 96.74 26.31 96.74 96.84v265.32c0 70.53-26.28 96.84-96.74 96.84H267.74c-70.46 0-96.74-26.31-96.74-96.84V903.84c0-70.53 26.28-96.84 96.74-96.84Zm99.39 130A33.1 33.1 0 0 0 334 903.85a33.1 33.1 0 0 0-33.13 33.17A33.1 33.1 0 0 0 334 970.17a33.1 33.1 0 0 0 33.13-33.16Zm-99.39 165.83a66.2 66.2 0 0 0 66.26 66.33 66.2 66.2 0 0 0 66.26-66.33A66.2 66.2 0 0 0 334 1036.5a66.2 66.2 0 0 0-66.26 66.33Z" fill="#FFFF00"/><path fill-rule="evenodd" clip-rule="evenodd" d="M1377.81 917.36a22.77 22.77 0 0 1 6.77 17.94l-21.97 295.59c-3.73 50.23-47.57 87.91-97.91 84.17-50.34-3.74-88.12-47.49-84.39-97.72 3.74-50.23 47.57-87.92 97.91-84.18a91.11 91.11 0 0 1 44.67 15.56l14.12-189.96-230.69 20.95-20.53 276.33-.01.07c-3.77 50.19-47.59 87.84-97.9 84.1-50.34-3.74-88.13-47.49-84.4-97.72 3.74-50.23 47.58-87.92 97.92-84.18a91.15 91.15 0 0 1 44.67 15.56l16.11-216.8c.83-11.12 9.59-20 20.71-21.02l276.83-25.15c6.68-.6 13.3 1.75 18.09 6.46Zm-60.77 310.14a45.65 45.65 0 0 0-42.2-48.86 45.65 45.65 0 0 0-48.95 42.08 45.65 45.65 0 0 0 42.19 48.87 45.66 45.66 0 0 0 48.96-42.09Zm-319.02-23.71a45.64 45.64 0 0 1 42.19 48.86 45.66 45.66 0 0 1-48.95 42.09 45.66 45.66 0 0 1-42.2-48.87 45.65 45.65 0 0 1 48.96-42.08Z" fill="#FF0000"/><path fill-rule="evenodd" clip-rule="evenodd" d="M1062.18 957.06c.83-11.11 9.59-20 20.71-21l276.83-25.16c6.68-.6 13.3 1.75 18.09 6.46a22.77 22.77 0 0 1 6.77 17.94l-21.97 295.59c-3.73 50.23-47.57 87.91-97.91 84.17-50.34-3.74-88.12-47.49-84.39-97.72 3.74-50.23 47.57-87.92 97.91-84.18a90.8 90.8 0 0 1 44.67 15.56l14.12-189.96-230.69 20.95-20.54 276.33v.07c-3.77 50.19-47.59 87.84-97.9 84.1-50.34-3.74-88.13-47.49-84.4-97.72 3.74-50.23 47.58-87.92 97.92-84.18a90.92 90.92 0 0 1 44.67 15.56l16.11-216.8Zm-47.55 167.59 12.65-170.18a57.81 57.81 0 0 1 52.44-53.27l276.83-25.15a57.89 57.89 0 0 1 45.78 16.32 57.8 57.8 0 0 1 17.16 45.53l-21.98 295.58c-5.17 69.58-65.86 121.65-135.4 116.48-69.55-5.16-121.87-65.64-116.7-135.22 5.17-69.58 65.86-121.65 135.41-116.48 3.59.27 7.14.68 10.63 1.24l7.6-102.15-160.02 14.54-18.35 246.8v.07c-5.24 69.51-65.9 121.52-135.4 116.35-69.54-5.17-121.87-65.64-116.7-135.22 5.18-69.58 65.87-121.65 135.41-116.48 3.59.27 7.14.68 10.64 1.24Zm267.5 100.26a10.65 10.65 0 0 0-9.88-11.37 10.65 10.65 0 0 0-11.46 9.78 10.65 10.65 0 0 0 9.89 11.36 10.64 10.64 0 0 0 11.45-9.77Zm-276.82 25.14a10.65 10.65 0 0 0-9.89-11.36 10.65 10.65 0 0 0-11.45 9.78 10.65 10.65 0 0 0 9.88 11.36 10.65 10.65 0 0 0 11.46-9.78Zm269.53-71.41a45.65 45.65 0 0 1 42.2 48.86 45.66 45.66 0 0 1-48.96 42.09 45.65 45.65 0 0 1-42.19-48.87 45.64 45.64 0 0 1 48.95-42.08Zm-234.63 74.01a45.64 45.64 0 0 0-42.2-48.86 45.65 45.65 0 0 0-48.95 42.08 45.66 45.66 0 0 0 42.2 48.87 45.66 45.66 0 0 0 48.95-42.09Z" fill="#FFFF00"/><path d="M1742 226.37v29.24c0 24.5-9.74 45.49-26.97 57.73-10.74 8-23.97 11.75-37.71 11.75a78.11 78.11 0 0 1-25.72-4.25l-134.36-44.74v243.18c0 65.49-53.19 118.72-118.62 118.72S1280 584.76 1280 519.28c0-65.48 53.19-118.71 118.62-118.71 31.47 0 59.94 12.5 81.16 32.49V169.38c0-24.24 9.99-45.23 27.22-57.73 17.24-12.25 40.21-15 63.19-7.5l110.38 37c33.96 11.24 61.43 49.48 61.43 85.22Z" fill="#FF0000"/><path fill-rule="evenodd" clip-rule="evenodd" d="M1479.78 169.38c0-24.24 9.99-45.23 27.22-57.73 17.24-12.25 40.21-15 63.19-7.5l110.38 37c33.96 11.24 61.43 49.48 61.43 85.22v29.24c0 24.5-9.74 45.49-26.97 57.73-10.74 8-23.97 11.75-37.71 11.75a78.11 78.11 0 0 1-25.72-4.25l-134.36-44.74v243.18c0 65.49-53.19 118.72-118.62 118.72S1280 584.76 1280 519.28c0-65.48 53.19-118.71 118.62-118.71 16.4 0 31.99 3.4 46.16 9.48a120.25 120.25 0 0 1 35 23V169.39Zm-35 203.35V169.38c0-33.83 14.13-66.08 41.68-86.06l.13-.1.14-.1c27.62-19.63 62.48-22.63 94.31-12.24l.14.04 110.39 37 .07.02c25.21 8.37 46.22 25.96 60.78 46.18 14.58 20.24 24.58 45.73 24.58 72.25v29.24c0 33.5-13.47 66.03-41.38 86.04-17.65 13.03-38.42 18.44-58.3 18.44-12.02 0-24.32-1.79-36.92-6.09l-88.16-29.35v194.63c0 84.79-68.83 153.72-153.62 153.72-84.78 0-153.62-68.93-153.62-153.72 0-84.78 68.84-153.71 153.62-153.71a151.6 151.6 0 0 1 46.16 7.16Z" fill="#FFFF00"/><path d="M2896 1009.09v188.72a60.02 60.02 0 0 1-59.97 59.96 60.16 60.16 0 0 1-59.97-59.96c0-32.9 27.06-59.79 59.97-59.79a58.81 58.81 0 0 1 36.75 12.86v-99.37l-153.84 43.75v134.78a60.13 60.13 0 0 1-59.97 59.96 60.02 60.02 0 0 1-59.97-59.96c0-32.9 26.89-59.79 59.97-59.79 13.86 0 26.39 4.85 36.58 12.7v-147.64c0-24.55 14.87-43.6 38.42-49.94l96.55-26.39c19.54-5.34 36.08-3.5 47.77 5.51 11.86 8.86 17.71 23.89 17.71 44.6Z" fill="#FF0000"/><path fill-rule="evenodd" clip-rule="evenodd" d="M2835.98 1292.77h-.05a95.17 95.17 0 0 1-83-49.12 95.13 95.13 0 0 1-93.86 81.35h-.1c-52.4 0-94.97-42.55-94.97-94.96 0-52.3 42.63-94.79 94.97-94.79l1.58.02v-99.96c0-40.58 25.68-73.3 64.25-83.72l.06-.01 96.43-26.36c25.64-7 54.74-6.54 78.16 11.4 23.91 17.97 31.55 45.82 31.55 72.47v188.72c0 52.4-42.57 94.96-94.97 94.96h-.05Zm42.31-328.28c-11.69-9.01-28.23-10.85-47.77-5.5l-96.55 26.38c-23.55 6.35-38.42 25.39-38.42 49.94v147.64a62.6 62.6 0 0 0-11.61-7.11 58.61 58.61 0 0 0-23.39-5.57l-1.58-.02c-33.08 0-59.97 26.89-59.97 59.79a60.02 60.02 0 0 0 59.97 59.96 60.12 60.12 0 0 0 59.97-59.96v-134.78l153.84-43.75v99.37a61.08 61.08 0 0 0-11.78-7.3 58.2 58.2 0 0 0-23.22-5.54l-1.75-.02c-32.91 0-59.97 26.89-59.97 59.79a60.15 60.15 0 0 0 59.97 59.96 60.06 60.06 0 0 0 58.2-45.48 59.63 59.63 0 0 0 1.77-14.48v-189.29c-.11-20.42-5.96-35.26-17.71-44.03Zm-40.51 138.55c-.58-.02-1.16-.02-1.75-.02-34.85 0-65.57 18.99-82.09 47.23v-28.55l83.84-23.85v5.19Z" fill="#FFFF00"/><path d="M787.9 209.07c-6.44-6.63-16.24-6.08-21.88 1.25-5.65 7.32-5 18.64 1.43 25.28 27.83 28.69 44.83 68.77 47.26 111.43 2.43 42.66-9.91 84.41-34.3 116.07-5.65 7.33-5 18.65 1.44 25.28 6.44 6.64 16.24 6.08 21.88-1.25 29.82-38.7 44.9-89.72 41.93-141.86-2.97-52.15-23.74-101.13-57.76-136.2Z" fill="#FF0000"/><path d="M736.86 275.3c-6.44-6.65-16.24-6.1-21.88 1.23-5.65 7.33-5 18.65 1.43 25.29 12.37 12.74 19.93 30.56 21 49.52 1.09 18.96-4.4 37.52-15.24 51.59-5.65 7.32-5 18.64 1.44 25.28 6.44 6.63 16.24 6.08 21.89-1.25 16.26-21.1 24.49-48.94 22.87-77.38-1.62-28.44-12.95-55.17-31.5-74.29Z" fill="#FF0000"/><path fill-rule="evenodd" clip-rule="evenodd" d="M668.33 229.82c-.4-6.87-4.16-12.94-9.69-15.61-5.53-2.68-11.85-1.48-16.25 3.08l-69.3 71.75-56.47 3.22c-8.55.49-15.02 8.88-14.46 18.76l6.1 107.26c.57 9.87 7.95 17.48 16.5 17l56.48-3.22 76.99 63.43c4.89 4.02 11.3 4.5 16.5 1.22 5.18-3.29 8.24-9.74 7.85-16.62l-14.25-250.27ZM590 320.02l49.5-51.25 10 175.9-54.98-45.3a14.25 14.25 0 0 0-9.89-3.37l-46.43 2.64-4.07-71.5 46.43-2.65c3.51-.2 6.85-1.78 9.44-4.47Z" fill="#FF0000"/><path fill-rule="evenodd" clip-rule="evenodd" d="m534.13 327.13 4.07 71.5 46.43-2.63c3.51-.2 7 .98 9.9 3.36l54.98 45.3-10.02-175.89L590 320.02a14.25 14.25 0 0 1-9.44 4.47l-46.43 2.64Zm36.93 32.96 11.49-.66a48.86 48.86 0 0 0 26.5-9.7l1.02 17.95a48.86 48.86 0 0 0-27.43-6.63l-11.49.66-.09-1.62Zm111.52 120c.39 6.88-2.67 13.33-7.86 16.62-5.2 3.28-11.6 2.8-16.5-1.22l-76.98-63.43-56.48 3.21c-8.55.49-15.93-7.12-16.5-17l-6.1-107.25c-.56-9.88 5.91-18.27 14.46-18.76l56.48-3.22 69.29-71.75c4.4-4.56 10.72-5.76 16.25-3.08 5.53 2.67 9.3 8.74 9.69 15.6l14.25 250.28ZM557.43 254.88l59.78-61.9c14.45-14.97 36.94-19.81 56.65-10.3 18.57 8.97 28.4 27.44 29.41 45.15l.76 13.26c7.74-4 16.32-5.8 24.84-5.37-4-15.84-.97-33.29 9.43-46.77 18.67-24.22 53.44-26.19 74.72-4.25 40.3 41.54 64.17 98.67 67.59 158.58 3.4 59.91-13.83 119.38-49.15 165.22-18.67 24.21-53.43 26.2-74.73 4.26-11.9-12.26-16.9-29.34-14.65-45.58a48.78 48.78 0 0 1-25.33-2.51l.77 13.44c1 17.7-6.67 37.17-24.1 48.18-18.5 11.7-41.4 9.43-57.45-3.8l-66.42-54.7-42.8 2.43c-32.4 1.84-52.05-25.68-53.43-49.95L467.22 313c-1.39-24.28 15-53.85 47.4-55.7l42.81-2.43Zm239.4-35.93c28.7 34.1 46.13 78.9 48.83 126.32 2.7 47.41-9.53 93.9-34.18 131.04a190.73 190.73 0 0 1-7.75 10.82c-5.64 7.33-15.44 7.89-21.88 1.25-5.31-5.46-6.69-14.1-3.85-21.08.6-1.49 1.4-2.9 2.4-4.2.68-.87 1.34-1.76 2-2.65 23.07-31.32 34.67-71.94 32.3-113.42-2.35-41.48-18.49-80.53-44.97-109.03-.75-.8-1.5-1.6-2.28-2.4a17.9 17.9 0 0 1-2.86-3.9c-3.61-6.6-3.23-15.35 1.43-21.38 5.64-7.33 15.44-7.88 21.88-1.25a184.01 184.01 0 0 1 8.93 9.88Zm-78.23 85.23c-.7-.8-1.44-1.6-2.19-2.37a17.96 17.96 0 0 1-2.86-3.9c-3.6-6.6-3.22-15.35 1.43-21.38 5.64-7.32 15.44-7.88 21.88-1.24a101.5 101.5 0 0 1 9.1 10.74c13.13 17.82 21.07 40.1 22.4 63.55 1.34 23.45-4.01 46.49-15.05 65.68a105.6 105.6 0 0 1-7.81 11.7c-5.65 7.33-15.45 7.88-21.89 1.25-5.3-5.47-6.68-14.1-3.85-21.08.61-1.5 1.41-2.91 2.4-4.2.66-.86 1.3-1.72 1.92-2.6 9.57-13.72 14.35-31.18 13.33-49-1-17.8-7.74-34.6-18.8-47.15Z" fill="#FFFF00"/><path fill-rule="evenodd" clip-rule="evenodd" d="M3333.06 907.88a166.8 166.8 0 0 1 293.65 93.6l1.75 20.78-41.55 3.5a62.55 62.55 0 0 0-57.07 67.59l5.25 62.33a62.58 62.58 0 0 0 67.59 57.07l20.77-1.75a62.58 62.58 0 0 0 57.08-67.59l-12.27-145.43a208.47 208.47 0 0 0-225.28-190.24 208.52 208.52 0 0 0-190.24 225.28l12.26 145.43a62.62 62.62 0 0 0 21.97 42.54 62.6 62.6 0 0 0 45.62 14.54l20.77-1.76a62.54 62.54 0 0 0 57.08-67.58l-5.26-62.33a62.54 62.54 0 0 0-67.59-57.07l-41.55 3.5-1.75-20.77a166.8 166.8 0 0 1 38.77-121.64Zm-33.51 183.96 7 83.11a20.87 20.87 0 0 0 22.53 19.02l20.78-1.75a20.86 20.86 0 0 0 19.02-22.53l-5.25-62.33a20.82 20.82 0 0 0-22.53-19.02l-41.55 3.5Zm332.42-28.03-41.56 3.51a20.81 20.81 0 0 0-19.02 22.53l5.26 62.32a20.82 20.82 0 0 0 22.52 19.03l20.78-1.75a20.87 20.87 0 0 0 19.02-22.53l-7-83.11Z" fill="#FF0000"/><path fill-rule="evenodd" clip-rule="evenodd" d="M3617.6 829.46a243.48 243.48 0 0 1 85.54 165.58l12.26 145.43a97.55 97.55 0 0 1-89.01 105.41l-20.77 1.75a97.55 97.55 0 0 1-105.4-89.01l-5.26-62.33a97.53 97.53 0 0 1 89.01-105.4l5.92-.5a131.84 131.84 0 0 0-140.46-106.22 131.81 131.81 0 0 0-120.69 128.24l5.91-.5a97.55 97.55 0 0 1 105.41 89.01l5.25 62.33a97.55 97.55 0 0 1-89.01 105.4l-20.77 1.75a97.55 97.55 0 0 1-105.41-89.01l-12.26-145.43a243.47 243.47 0 0 1 222.18-263.1 243.5 243.5 0 0 1 177.56 56.6Zm-280.01 217.33a62.5 62.5 0 0 1 67.59 57.07l5.25 62.33a62.52 62.52 0 0 1-57.07 67.58l-20.77 1.76a62.58 62.58 0 0 1-67.59-57.08l-12.26-145.43a208.47 208.47 0 0 1 190.24-225.28 208.5 208.5 0 0 1 225.28 190.24l12.27 145.43a62.58 62.58 0 0 1-57.08 67.59l-20.77 1.75a62.52 62.52 0 0 1-67.59-57.07l-5.25-62.33a62.55 62.55 0 0 1 57.07-67.59l41.55-3.5-1.75-20.78a166.81 166.81 0 0 0-293.65-93.6 166.81 166.81 0 0 0-38.77 121.64l1.75 20.77 41.55-3.5Zm-38.04 45.05 41.55-3.5a20.85 20.85 0 0 1 22.53 19.02l5.25 62.33a20.86 20.86 0 0 1-19.02 22.53l-20.78 1.75a20.84 20.84 0 0 1-22.53-19.02l-7-83.11Zm290.86-24.52a20.81 20.81 0 0 0-19.02 22.53l5.25 62.32a20.87 20.87 0 0 0 22.53 19.03l20.78-1.75a20.87 20.87 0 0 0 19.02-22.53l-7-83.11-41.56 3.51Z" fill="#FFFF00"/><path fill-rule="evenodd" clip-rule="evenodd" d="M3069.22 230.76a49.65 49.65 0 0 0-.01.05l44.9 2.37-6.04 114.14c-.08 1.5.06 2.96.4 4.38-12.52 5.3-21.36 16.32-22.06 29.51l-4.93 93.18c-.69 12.96 6.67 24.67 18.21 31.33l-3.95 74.54c-.5 9.55 8.06 17.95 18.89 18.52 10.83.57 20.23-6.87 20.73-16.42l3.95-74.54c12.17-5.4 20.72-16.27 21.41-29.24l4.93-93.17c.7-13.2-6.94-25.09-18.82-31.68.48-1.37.78-2.82.86-4.31l6.38-120.54a48.44 48.44 0 0 0 8.77-5.5c9.12-7.23 14.96-17.43 15.56-28.84 1.22-23.06-19.18-43.06-45.33-44.45l-59.43-3.14a54.62 54.62 0 0 0-5.23-5.93c-20.9-20.5-60.82-27.05-95.73 1.94-3.6 3.08-6.58 9.23-6.82 13.89l-2.89 54.5c-.26 4.9 2.54 12.05 6.6 15.54 36.71 32.07 78.33 26.34 99.65 3.87Zm4.51-83.7ZM3278.78 199.85c-.6 11.41 4.13 22.18 12.44 30.32a48.06 48.06 0 0 0 8.12 6.4l-18.7 353.48c-.51 9.55 8.05 17.94 18.88 18.51 10.83.58 20.23-6.87 20.74-16.42l18.36-347.08 44.92 2.38a49.87 49.87 0 0 1-.01-.05c18.83 24.6 59.62 34.7 99.51 6.67 4.39-3.04 7.93-9.86 8.19-14.75l2.89-54.5c.23-4.44-2.07-11.1-5.33-14.54-31.65-32.5-72.03-30.2-94.98-12.03a54.42 54.42 0 0 0-5.83 5.34l-59.43-3.14c-26.15-1.39-48.55 16.35-49.77 39.4Zm108.94-36Z" fill="#FF0000"/><path fill-rule="evenodd" clip-rule="evenodd" d="M3133.07 150.1c26.15 1.38 46.55 21.38 45.33 44.44-.6 11.41-6.44 21.61-15.56 28.84a48.44 48.44 0 0 1-8.77 5.5l-6.38 120.54c-.08 1.5-.38 2.94-.86 4.3 11.88 6.6 19.52 18.5 18.82 31.69l-4.93 93.17c-.69 12.97-9.24 23.84-21.41 29.24l-3.95 74.54c-.5 9.55-9.9 17-20.73 16.42-10.83-.57-19.39-8.97-18.89-18.52l3.95-74.54c-11.54-6.66-18.9-18.37-18.21-31.33l4.93-93.18c.7-13.19 9.55-24.21 22.06-29.51a15.2 15.2 0 0 1-.4-4.38l6.04-114.14-44.9-2.37.03-.03a49.68 49.68 0 0 0-.02-.02l-.01.01-.02.02c-14.48 15.24-38.31 22.77-63.61 15.99-11.96-3.2-24.24-9.6-36.01-19.9-4.06-3.48-6.86-10.63-6.6-15.52l2.89-54.51c.24-4.66 3.22-10.81 6.82-13.89 34.91-28.99 74.83-22.44 95.73-1.94a54.62 54.62 0 0 1 5.23 5.93l59.43 3.14Zm-43.7-37.37 45.55 2.41c41.2 2.18 80.88 34.88 78.43 81.25-1.11 20.95-11.1 38.86-25.24 51.45l-4.81 90.88c11.23 12.63 18.31 29.43 17.3 48.54l-4.93 93.17c-1.01 19.1-9.83 35.07-22.32 46.44l-3.04 57.34c-1.73 32.85-31.66 50.89-57.53 49.52-25.88-1.37-53.73-22.47-51.99-55.32l3.04-57.33c-11.23-12.63-18.31-29.44-17.3-48.54l4.93-93.18c1.01-19.1 9.82-35.06 22.32-46.43l3.37-63.68c-36.56 23.3-88.62 20.64-130.53-15.94-7.34-6.35-11.77-14.15-14.31-20.27-2.54-6.14-4.77-14.45-4.29-23.53l2.88-54.51a55.31 55.31 0 0 1 5.67-21.07 54.97 54.97 0 0 1 13.39-17.59l.18-.15.18-.16c46.73-38.8 104.49-33.79 139.05-3.3Zm-9.21 45.43Zm258.46 86.9-18.36 347.08c-.51 9.55-9.91 17-20.74 16.42-10.83-.57-19.39-8.96-18.88-18.51l18.7-353.49a48 48 0 0 1-8.12-6.39c-8.31-8.14-13.04-18.9-12.44-30.32 1.22-23.06 23.62-40.8 49.77-39.41l59.43 3.14a54.42 54.42 0 0 1 5.83-5.34c22.95-18.18 63.33-20.48 94.98 12.03 3.26 3.44 5.56 10.1 5.33 14.53l-2.89 54.5c-.26 4.9-3.8 11.72-8.19 14.76-12.8 8.99-25.69 14.05-37.92 15.98-25.86 4.07-48.77-5.93-61.56-22.61l-.02-.02-.01-.02a49.83 49.83 0 0 1-.02.01l.03.04-44.92-2.38Zm32.95 39.76-16.36 309.17c-1.74 32.85-31.66 50.9-57.54 49.52-25.87-1.37-53.72-22.46-51.98-55.31l17.8-336.39c-12.72-14-20.77-32.87-19.66-53.81 2.46-46.36 45.37-74.7 86.57-72.52l45.55 2.42c37.58-26.68 95.55-25.56 137.92 17.95l.17.18.16.17c6 6.33 9.51 13.6 11.5 19.13 1.99 5.52 3.8 13.08 3.37 21.32l-2.89 54.5c-.48 9.1-3.58 17.12-6.75 22.96-3.16 5.81-8.39 13.1-16.35 18.64-45.55 31.96-97.62 29.1-131.51 2.07Zm16.15-120.97Z" fill="#FFFF00"/><path d="m1737.99 1096.52-.01-.6 1.33-135.19c-.56-64.28 24.02-124.76 69.11-169.87 45.09-44.86 105.17-69.18 169.52-68.54 131.56 1.29 237.6 109.3 236.32 240.7l-.96 97.3v1.36l-.44 44.59c-.49 49.81-41.49 89.96-91.36 89.48l-3.08-.03c-49.87-.49-90.08-41.45-89.59-91.25l.44-44.59c.48-49.81 41.49-89.97 91.36-89.48l3.08.03c20.6.2 39.55 7.3 54.66 19.09l.27-26.85c1.09-111.71-88.96-203.68-201.05-204.78-54.85-.53-105.87 20.08-144.01 58.13-38.37 38.28-59.06 89.55-58.65 144.59l-.24 24.97a90.06 90.06 0 0 1 55.04-18.03l3.09.03c49.87.49 90.08 41.44 89.59 91.25l-.44 44.59c-.49 49.8-41.49 89.96-91.36 89.47l-3.08-.03c-49.87-.48-90.08-41.44-89.59-91.25l.05-5.09Z" fill="#FF0000"/><path fill-rule="evenodd" clip-rule="evenodd" d="M1809.85 969.55a90.2 90.2 0 0 0-35.16 16.03l.24-24.97c-.04-5.41.13-10.79.49-16.12 3.34-48.87 23.56-93.95 58.16-128.47 38.14-38.05 89.16-58.66 144.01-58.13 107.26 1.05 194.34 85.31 200.69 190.46.28 4.73.4 9.5.36 14.32l-.27 26.85a90.18 90.18 0 0 0-54.66-19.09l-3.08-.03c-49.87-.49-90.88 39.67-91.36 89.48l-.44 44.59c-.49 49.8 39.72 90.76 89.59 91.25l3.08.03c49.87.48 90.87-39.67 91.36-89.48l.44-44.59V1060.32l.96-97.3c1.28-131.4-104.76-239.41-236.32-240.7-64.35-.63-124.43 23.68-169.52 68.54-45.09 45.1-69.67 105.59-69.11 169.87l-1.33 135.19.01.6-.05 5.09c-.49 49.81 39.72 90.77 89.59 91.25l3.08.03c49.87.49 90.87-39.67 91.36-89.47l.44-44.59c.49-49.81-39.72-90.76-89.59-91.25l-3.09-.03a90.44 90.44 0 0 0-19.88 2Zm1.89-35.84c6-.82 12.12-1.22 18.34-1.16l3.08.03c69.16.68 124.92 57.42 124.25 126.59l-.44 44.59c-.68 69.18-57.54 124.81-126.7 124.13l-3.09-.03c-69.15-.67-124.92-57.41-124.24-126.59l.05-4.66v-1.03l1.32-134.88c-.55-73.44 27.64-142.85 79.36-194.58l.03-.03.03-.04c51.81-51.55 120.95-79.45 194.56-78.73 150.84 1.48 272.44 125.27 270.97 276.04l-.96 97.06v1.6l-.44 44.59c-.68 69.18-57.54 124.81-126.7 124.13l-3.09-.03c-69.15-.67-124.92-57.41-124.24-126.59l.44-44.59c.68-69.17 57.54-124.8 126.7-124.13l3.09.03c6.08.06 12.05.56 17.9 1.46-11.51-80.52-80.62-143.17-164.71-144-45.65-.45-87.58 16.6-118.94 47.9h-.01a163.63 163.63 0 0 0-46.56 92.92Z" fill="#FFFF00"/></svg>