<svg xmlns="http://www.w3.org/2000/svg" width="25" height="32" fill="none"><path fill="#1f2328" fill-rule="evenodd" d="M16.36 0H3.86C1.46 0 .02 1.45.02 3.88c-.04 2.3 0 24.24 0 24.24C.02 30.55 1.46 32 3.86 32h12.5c2.4 0 3.84-1.45 3.84-3.88V17.94c0-.49-.96-.49-1.44-.49s-1.44 0-1.44.49v3.88c0 .97-.48 1.45-1.44 1.45H4.34c-.96 0-1.44-.48-1.44-1.45V4.36c0-.97.48-1.45 1.44-1.45h9.61c.19 0 .41-.28.68-.63.1-.1.19-.22.29-.34l.47-.56C16.41.18 16.57 0 16.36 0Zm-4.8 26.18c.47 0 .95.49.95.97v.97c0 .49-.48.97-.96.97H8.2c-.48 0-.96-.48-.96-.97v-.97c0-.48.48-.97.96-.97h3.36Z" clip-rule="evenodd"/><path fill="#1f2328" d="M17.32 7.27h2.4l-2.16-2.66c-1.2-1.46.48-2.67 1.68-1.46l5.29 5.1c.48.48.48.48 0 .96l-5.05 4.85c-.72.97-2.64 0-1.68-1.45l1.92-2.43h-2.4c-2.4 0-5.77 3.15-5.77 4.85v2.9c0 1.22-2.88 1.22-2.88 0v-2.66c0-5.09 6.25-8 8.65-8Z"/></svg>